<?xml version="1.0" standalone="no"?>
<!DOCTYPE svg PUBLIC "-//W3C//DTD SVG 20010904//EN"
 "http://www.w3.org/TR/2001/REC-SVG-20010904/DTD/svg10.dtd">
<svg version="1.0" xmlns="http://www.w3.org/2000/svg"
 width="500.000000pt" height="500.000000pt" viewBox="0 0 500.000000 500.000000"
 preserveAspectRatio="xMidYMid meet">

<g transform="translate(0.000000,500.000000) scale(0.100000,-0.100000)"
fill="#000000" stroke="none">
<path d="M997 3045 c-49 -17 -81 -47 -107 -100 -17 -36 -20 -62 -20 -190 l0
-148 -37 -31 c-116 -99 -117 -106 -28 -191 l65 -63 0 -138 c0 -114 4 -146 19
-179 35 -74 85 -111 161 -117 l45 -3 3 63 c3 60 2 62 -21 62 -13 0 -36 9 -51
21 -26 20 -26 22 -26 151 0 149 -10 193 -55 246 l-32 37 32 37 c45 53 55 97
55 252 0 123 2 138 20 156 11 11 33 20 50 20 l30 0 0 65 0 65 -32 0 c-18 -1
-50 -7 -71 -15z"/>
<path d="M3580 2976 c0 -63 1 -66 24 -66 13 0 34 -9 47 -19 23 -18 24 -26 29
-184 5 -155 6 -167 29 -199 14 -18 33 -39 44 -47 18 -13 17 -15 -17 -50 -19
-20 -40 -49 -45 -64 -6 -16 -11 -91 -11 -168 0 -135 -1 -141 -25 -164 -13 -14
-36 -25 -50 -25 -24 0 -25 -2 -25 -66 l0 -67 40 6 c57 7 109 37 144 80 l31 39
5 159 5 158 63 64 c74 75 80 104 31 145 -18 15 -46 39 -63 54 l-31 26 -5 165
-5 165 -31 39 c-40 49 -79 71 -137 79 l-47 7 0 -67z"/>
<path d="M2383 2692 c-185 -2 -203 -4 -203 -20 0 -9 -3 -27 -6 -39 -6 -22 -4
-23 64 -23 39 0 73 -3 75 -8 3 -4 -12 -92 -33 -195 l-37 -188 55 3 56 3 28
140 c15 77 33 164 39 193 l10 52 69 0 c38 0 71 -3 73 -8 3 -4 -12 -92 -33
-195 l-37 -188 55 3 c55 3 56 3 63 38 4 19 12 61 19 93 l11 57 105 0 c119 0
113 7 89 -100 -8 -36 -14 -71 -15 -77 0 -10 28 -13 108 -13 l107 0 28 50 28
50 113 0 114 0 8 -47 9 -48 56 -3 56 -3 -57 233 -57 233 -59 0 -58 0 -134
-208 c-74 -114 -137 -206 -139 -203 -4 3 53 307 74 394 5 21 2 22 -50 22 l-55
0 -11 -50 c-6 -27 -14 -68 -17 -90 l-7 -40 -108 0 c-108 0 -109 0 -104 23 3
12 11 52 19 89 l13 66 -61 4 c-34 2 -152 2 -263 0z m903 -195 c10 -42 15 -80
12 -83 -3 -3 -35 -4 -71 -2 l-66 3 51 83 c27 46 52 82 54 80 2 -2 11 -39 20
-81z"/>
<path d="M1251 2478 c-23 -117 -45 -223 -48 -235 -5 -22 -2 -23 50 -23 l55 0
10 48 c6 26 19 89 28 140 10 50 21 92 25 92 3 0 44 -63 90 -140 l84 -140 100
0 100 0 28 50 28 50 113 0 114 0 8 -47 9 -48 56 -3 56 -3 -57 233 -57 233 -59
0 -58 0 -140 -217 c-78 -119 -141 -216 -142 -215 -2 2 69 365 81 415 5 21 2
22 -49 22 l-54 0 -10 -47 c-6 -27 -19 -90 -28 -140 -10 -51 -21 -93 -24 -93
-3 0 -43 63 -89 140 l-82 140 -48 0 -48 0 -42 -212z m735 19 c10 -42 15 -80
12 -83 -3 -3 -35 -4 -71 -2 l-66 3 51 83 c27 46 52 82 54 80 2 -2 11 -39 20
-81z"/>
</g>
</svg>
